<svg width="40" height="40" viewBox="0 0 40 40" fill="none" xmlns="http://www.w3.org/2000/svg">
<g clip-path="url(#clip0_138_6)">
<path d="M0 20C0 8.9543 8.9543 0 20 0C31.0457 0 40 8.9543 40 20C40 31.0457 31.0457 40 20 40C8.9543 40 0 31.0457 0 20Z" fill="#F9D9DA"/>
<path fill-rule="evenodd" clip-rule="evenodd" d="M20.0015 24.0202C20.12 24.0202 20.2336 23.9731 20.3174 23.8893C20.4012 23.8055 20.4483 23.6919 20.4483 23.5734V15.5308C20.4483 15.4123 20.4012 15.2986 20.3174 15.2148C20.2336 15.131 20.12 15.084 20.0015 15.084C19.883 15.084 19.7693 15.131 19.6855 15.2148C19.6018 15.2986 19.5547 15.4123 19.5547 15.5308V23.5734C19.5547 23.6919 19.6018 23.8055 19.6855 23.8893C19.7693 23.9731 19.883 24.0202 20.0015 24.0202Z" fill="#07484A"/>
<path fill-rule="evenodd" clip-rule="evenodd" d="M19.6869 24.7844C19.7284 24.826 19.7777 24.859 19.832 24.8816C19.8863 24.9041 19.9445 24.9157 20.0032 24.9157C20.062 24.9157 20.1202 24.9041 20.1745 24.8816C20.2288 24.859 20.2781 24.826 20.3196 24.7844L23.0004 22.1036C23.0843 22.0197 23.1315 21.9059 23.1315 21.7872C23.1315 21.6686 23.0843 21.5548 23.0004 21.4709C22.9165 21.387 22.8028 21.3398 22.6841 21.3398C22.5655 21.3398 22.4517 21.387 22.3678 21.4709L20.0032 23.8363L17.6387 21.4709C17.5548 21.387 17.441 21.3398 17.3224 21.3398C17.2037 21.3398 17.0899 21.387 17.006 21.4709C16.9221 21.5548 16.875 21.6686 16.875 21.7872C16.875 21.9059 16.9221 22.0197 17.006 22.1036L19.6869 24.7844Z" fill="#07484A"/>
</g>
<defs>
<clipPath id="clip0_138_6">
<rect width="40" height="40" fill="white" transform="matrix(0 1 1 0 0 0)"/>
</clipPath>
</defs>
</svg>
