<svg width="63" height="46" viewBox="0 0 63 46" fill="none" xmlns="http://www.w3.org/2000/svg">
<path d="M0.280273 24.4677V21.2528C0.280273 20.3651 0.982286 19.6454 1.84826 19.6454H52.557L38.6019 5.37146C38.3051 5.06964 38.1381 4.65878 38.1381 4.23018C38.1381 3.80158 38.3051 3.39073 38.6019 3.08891L40.8285 0.838511C41.1229 0.534205 41.5237 0.363037 41.9417 0.363037C42.3598 0.363037 42.7606 0.534205 43.055 0.838511L62.3099 20.5456C62.7511 20.9973 62.9993 21.6102 62.9998 22.2494V23.4711C62.9926 24.109 62.7455 24.7194 62.3099 25.175L43.055 44.882C42.7606 45.1863 42.3598 45.3575 41.9417 45.3575C41.5237 45.3575 41.1229 45.1863 40.8285 44.882L38.6019 42.5995C38.3069 42.3032 38.1407 41.8976 38.1407 41.4743C38.1407 41.0509 38.3069 40.6454 38.6019 40.3491L52.557 26.0751H1.84826C0.982286 26.0751 0.280273 25.3555 0.280273 24.4677Z" fill="black"/>
</svg>
