<svg width="40" height="40" viewBox="0 0 40 40" fill="none" xmlns="http://www.w3.org/2000/svg">
<g clip-path="url(#clip0_138_2)">
<path d="M0 20C0 31.0457 8.9543 40 20 40C31.0457 40 40 31.0457 40 20C40 8.9543 31.0457 0 20 0C8.9543 0 0 8.9543 0 20Z" fill="#E0EFF6"/>
<path fill-rule="evenodd" clip-rule="evenodd" d="M19.9985 15.9766C20.117 15.9766 20.2306 16.0237 20.3144 16.1075C20.3982 16.1913 20.4453 16.3049 20.4453 16.4234V24.466C20.4453 24.5845 20.3982 24.6982 20.3144 24.782C20.2306 24.8658 20.117 24.9128 19.9985 24.9128C19.88 24.9128 19.7663 24.8658 19.6825 24.782C19.5988 24.6982 19.5517 24.5845 19.5517 24.466V16.4234C19.5517 16.3049 19.5988 16.1913 19.6825 16.1075C19.7663 16.0237 19.88 15.9766 19.9985 15.9766Z" fill="#07484A"/>
<path fill-rule="evenodd" clip-rule="evenodd" d="M19.6804 15.2172C19.7219 15.1756 19.7712 15.1426 19.8255 15.12C19.8798 15.0975 19.938 15.0859 19.9967 15.0859C20.0555 15.0859 20.1137 15.0975 20.168 15.12C20.2223 15.1426 20.2716 15.1756 20.3131 15.2172L22.9939 17.898C23.0778 17.9819 23.125 18.0957 23.125 18.2144C23.125 18.333 23.0778 18.4468 22.9939 18.5307C22.91 18.6146 22.7963 18.6618 22.6776 18.6618C22.559 18.6618 22.4452 18.6146 22.3613 18.5307L19.9967 16.1653L17.6322 18.5307C17.5483 18.6146 17.4345 18.6618 17.3159 18.6618C17.1972 18.6618 17.0834 18.6146 16.9995 18.5307C16.9156 18.4468 16.8685 18.333 16.8685 18.2144C16.8685 18.0957 16.9156 17.9819 16.9995 17.898L19.6804 15.2172Z" fill="#07484A"/>
</g>
<defs>
<clipPath id="clip0_138_2">
<rect width="40" height="40" fill="white" transform="matrix(0 1 -1 0 40 0)"/>
</clipPath>
</defs>
</svg>
